<svg width="200" height="200" viewBox="0 0 200 200" fill="none" xmlns="http://www.w3.org/2000/svg">
  <rect width="200" height="200" rx="30" fill="#FC5347"/>
  <path d="M4 72.7444C4 70.9722 4.46002 69.1669 5.72865 67.9295C32.2825 42.0291 196 84.6578 196 131C196 145.266 196 156.826 196 166.018C196 182.587 182.569 196 166 196H34C17.4315 196 4 182.599 4 166.03C4 145.368 4 114.144 4 72.7444Z" fill="#FF2D1E"/>
  <path d="M109.241 24L122.787 55.0705L182.39 30.888L155.975 79.0207L200 99.0871L138.5 124.5L170.442 167.286L116.691 162.523L100.436 180L67.9255 145.046L38.1241 152.166L48.961 110.739L9 84.9891L48.961 79.0207L42.8652 44.7137L80.7943 55.0705L109.241 24Z" fill="#FC5347"/>
  <path d="M108.021 34L119.511 61.6846L170.064 40.1374L147.66 83.0249L185 100.905L133.5 123.5L159.93 161.672L114.34 157.427L100.553 173L72.9787 141.855L47.7021 148.199L56.8936 111.286L23 88.3429L56.8936 83.0249L51.7234 52.4564L83.8936 61.6846L108.021 34Z" fill="#FF9F98"/>
  <path d="M107 42.5L117 66.5L161 47.8205L141.5 85L174 100.5L127.5 121.5L149 155L112.5 149.5L100.5 163L76.5 136L54.5 141.5L62.5 109.5L33 89.6102L62.5 85L58 58.5L86 66.5L107 42.5Z" fill="#D9D9D9"/>
  <path d="M102.681 57L110.34 75.3237L144.043 61.0622L129.106 89.4481L154 101.282L120.5 119.5L135.5 145L106.894 138.693L97.7021 149L79.3191 128.386L62.4681 132.585L68.5957 108.154L46 92.9679L68.5957 89.4481L65.1489 69.2158L86.5957 75.3237L102.681 57Z" fill="black"/>
</svg>