<svg width="200" height="200" viewBox="0 0 200 200" fill="none" xmlns="http://www.w3.org/2000/svg">
  <rect width="200" height="200" rx="30" fill="#FC5347"/>
  <path d="M4 72.7444C4 70.9722 4.46002 69.1669 5.72865 67.9295C32.2825 42.0291 196 84.6578 196 131C196 145.266 196 156.826 196 166.018C196 182.587 182.569 196 166 196H34C17.4315 196 4 182.599 4 166.03C4 145.368 4 114.144 4 72.7444Z" fill="#FF2D1E"/>
  <path d="M39.0815 31.8098C40.6795 19.8946 50.8467 11 62.8685 11H98.5H133.15C145.116 11 155.254 19.8144 156.918 31.6642L175.163 161.664C177.19 176.104 165.978 189 151.396 189H45.4336C30.9113 189 19.7162 176.203 21.6466 161.81L39.0815 31.8098Z" fill="#FC5347"/>
  <path d="M44.3345 35.8524C45.9133 23.9182 56.089 15 68.1272 15H99.5H129.973C141.956 15 152.103 23.8388 153.746 35.7087L170.222 154.709C172.219 169.134 161.012 182 146.448 182H52.3842C37.8791 182 26.6891 169.232 28.5915 154.852L44.3345 35.8524Z" fill="#FF9F98"/>
  <path d="M45.7045 40.8037C47.3052 28.8913 57.4712 20 69.4907 20H99.5H128.639C140.602 20 150.739 28.8109 152.405 40.6579L168.155 152.658C170.186 167.1 158.973 180 144.389 180H54.4407C39.9159 180 28.7201 167.199 30.6545 152.804L45.7045 40.8037Z" fill="black"/>
  <path d="M52.1029 123.925C54.8659 113.365 64.4062 106 75.3212 106H99H122.068C132.881 106 142.36 113.232 145.216 123.661L150.692 143.661C154.875 158.934 143.38 174 127.544 174H70.0879C54.3657 174 42.8897 159.135 46.8696 143.925L52.1029 123.925Z" fill="#FF9F98"/>
  <path d="M54.0633 125.922C56.8274 115.364 66.367 108 77.2808 108H98.5H119.156C129.969 108 139.446 115.23 142.303 125.658L146.687 141.658C150.872 156.932 139.377 172 123.54 172H73.092C57.3685 172 45.8923 157.133 49.8745 141.922L54.0633 125.922Z" fill="black"/>
  <path d="M144 123C146.5 126.5 123.629 132 98.5 132C73.371 132 49 126 53 123C55.5 124 73.371 130 98.5 130C123.629 130 141.5 123.5 144 123Z" fill="#FF9F98"/>
  <path d="M147.356 68.3614C145.196 73.3192 141.425 77.402 136.653 79.948L132.645 82.087C129.527 83.7508 126.08 84.7054 122.551 84.8828L100.324 86L75.6898 84.8945C71.5839 84.7102 67.5941 83.4746 64.1027 81.306L62 80L61.702 79.8337C57.2574 77.3534 53.7164 73.5243 51.5907 68.8996L47.5 60L44.7371 51.1586C39.9076 35.7043 51.4532 20 67.6446 20L130.743 20C146.82 20 158.351 35.4977 153.731 50.8964L151 60L147.356 68.3614Z" fill="#FF9F98"/>
  <path d="M146.22 64.7478C144.354 70.5111 140.378 75.3558 135.089 78.3097L132.329 79.851C129.125 81.6408 125.553 82.6717 121.887 82.8645L100.303 84L76.0933 82.8628C72.0246 82.6717 68.0714 81.4482 64.606 79.3075L62.8986 78.2527C58.1497 75.3191 54.5719 70.8219 52.7809 65.5351L46.7391 47.7005C41.4672 32.1385 53.0395 16 69.4702 16L129.005 16C145.299 16 156.856 31.8896 151.838 47.3915L146.22 64.7478Z" fill="black"/>
</svg>