<svg width="200" height="200" viewBox="0 0 200 200" fill="none" xmlns="http://www.w3.org/2000/svg">
  <rect width="200" height="200" rx="30" fill="#FC5347"/>
  <path d="M4 72.7444C4 70.9722 4.46002 69.1669 5.72865 67.9295C32.2825 42.0291 196 84.6578 196 131C196 145.266 196 156.826 196 166.018C196 182.587 182.569 196 166 196H34C17.4315 196 4 182.599 4 166.03C4 145.368 4 114.144 4 72.7444Z" fill="#FF2D1E"/>
  <path d="M78 56C78 50.4772 73.5228 46 68 46C62.4772 46 58 50.4772 58 56L78 56ZM58 113L58 123L78 123L78 113L58 113ZM58 56L58 113L78 113L78 56L58 56Z" fill="#FC5347"/>
  <path d="M93 46C93 40.4772 88.5228 36 83 36C77.4772 36 73 40.4772 73 46L93 46ZM73 113L73 123L93 123L93 113L73 113ZM73 46L73 113L93 113L93 46L73 46Z" fill="#FC5347"/>
  <path d="M108 38C108 32.4772 103.523 28 98 28C92.4772 28 88 32.4772 88 38L108 38ZM88 113L88 123L108 123L108 113L88 113ZM88 38L88 113L108 113L108 38L88 38Z" fill="#FC5347"/>
  <path d="M124 41C124 35.4772 119.523 31 114 31C108.477 31 104 35.4772 104 41L124 41ZM104 113L104 123L124 123L124 113L104 113ZM104 41L104 113L124 113L124 41L104 41Z" fill="#FC5347"/>
  <path d="M142 76C142 70.4772 137.523 66 132 66C126.477 66 122 70.4772 122 76L142 76ZM122 113L122 123L142 123L142 113L122 113ZM122 76L122 113L142 113L142 76L122 76Z" fill="#FC5347"/>
  <ellipse cx="100" cy="126" rx="42" ry="35" fill="#FC5347"/>
  <path d="M81 60C81 54.4772 76.5228 50 71 50C65.4772 50 61 54.4772 61 60L81 60ZM61 113L61 123L81 123L81 113L61 113ZM61 60L61 113L81 113L81 60L61 60Z" fill="#FF9F98"/>
  <path d="M95 51C95 45.4772 90.5228 41 85 41C79.4772 41 75 45.4772 75 51L95 51ZM75 113L75 123L95 123L95 113L75 113ZM75 51L75 113L95 113L95 51L75 51Z" fill="#FF9F98"/>
  <path d="M109 43C109 37.4772 104.523 33 99 33C93.4772 33 89 37.4772 89 43L109 43ZM89 113L89 123L109 123L109 113L89 113ZM89 43L89 113L109 113L109 43L89 43Z" fill="#FF9F98"/>
  <path d="M123 46C123 40.4772 118.523 36 113 36C107.477 36 103 40.4772 103 46L123 46ZM103 113L103 123L123 123L123 113L103 113ZM103 46L103 113L123 113L123 46L103 46Z" fill="#FF9F98"/>
  <path d="M139 78C139 72.4772 134.523 68 129 68C123.477 68 119 72.4772 119 78L139 78ZM119 113L119 123L139 123L139 113L119 113ZM119 78L119 113L139 113L139 78L119 78Z" fill="#FF9F98"/>
  <ellipse cx="100" cy="125" rx="39" ry="32" fill="#FF9F98"/>
  <ellipse cx="99.5" cy="123.5" rx="34.5" ry="28.5" fill="black"/>
  <path d="M83 65C83 60.0294 78.9706 56 74 56C69.0294 56 65 60.0294 65 65L83 65ZM65 112L65 121L83 121L83 112L65 112ZM65 65L65 112L83 112L83 65L65 65Z" fill="black"/>
  <path d="M95 58C95 52.4772 90.5228 48 85 48C79.4772 48 75 52.4772 75 58L95 58ZM75 113L75 123L95 123L95 113L75 113ZM75 58L75 113L95 113L95 58L75 58Z" fill="black"/>
  <path d="M109 51C109 45.4772 104.523 41 99 41C93.4772 41 89 45.4772 89 51L109 51ZM89 113L89 123L109 123L109 113L89 113ZM89 51L89 113L109 113L109 51L89 51Z" fill="black"/>
  <path d="M119 52C119 47.5817 115.418 44 111 44C106.582 44 103 47.5817 103 52L119 52ZM103 111L103 119L119 119L119 111L103 111ZM103 52L103 111L119 111L119 52L103 52Z" fill="black"/>
  <path d="M134 82C134 77.0294 129.971 73 125 73C120.029 73 116 77.0294 116 82L134 82ZM116 113L116 122L134 122L134 113L116 113ZM116 82L116 113L134 113L134 82L116 82Z" fill="black"/>
  <path d="M74.5 89C74.5 89.2761 74.7239 89.5 75 89.5C75.2761 89.5 75.5 89.2761 75.5 89L74.5 89ZM74.5 55L74.5 89L75.5 89L75.5 55L74.5 55Z" fill="#FF9F98"/>
  <path d="M88.5 85C88.5 85.2761 88.7239 85.5 89 85.5C89.2761 85.5 89.5 85.2761 89.5 85L88.5 85ZM88.5 48L88.5 85L89.5 85L89.5 48L88.5 48Z" fill="#FF9F98"/>
  <path d="M106.5 87C106.5 87.2761 106.724 87.5 107 87.5C107.276 87.5 107.5 87.2761 107.5 87L106.5 87ZM106.5 44L106.5 87L107.5 87L107.5 44L106.5 44Z" fill="#FF9F98"/>
  <path d="M119 48L119 100" stroke="#FF9F98" stroke-linecap="round"/>
</svg>