<svg width="200" height="200" viewBox="0 0 200 200" fill="none" xmlns="http://www.w3.org/2000/svg">
  <rect width="200" height="200" rx="30" fill="#FC5347"/>
  <path d="M4 72.7444C4 70.9722 4.46002 69.1669 5.72865 67.9295C32.2825 42.0291 196 84.6578 196 131C196 145.266 196 156.826 196 166.018C196 182.587 182.569 196 166 196H34C17.4315 196 4 182.599 4 166.03C4 145.368 4 114.144 4 72.7444Z" fill="#FF2D1E"/>
  <circle cx="99.5" cy="98.5" r="70.5" fill="#FC5347"/>
  <circle cx="100" cy="98" r="62" fill="#FF9F98"/>
  <path d="M162 98C162 81.5566 155.468 65.7866 143.841 54.1594C132.213 42.5321 116.443 36 100 36C83.5566 36 67.7866 42.5321 56.1594 54.1594C44.5321 65.7866 38 81.5566 38 98L100 98H162Z" fill="#FF2D1E"/>
  <circle cx="99.5" cy="96.5" r="20.5" fill="black"/>
  <line x1="38" y1="97.5" x2="162" y2="97.5" stroke="black" stroke-width="9"/>
  <circle cx="100" cy="96" r="13" fill="#FF9F98"/>
</svg>