<svg width="200" height="200" viewBox="0 0 200 200" fill="none" xmlns="http://www.w3.org/2000/svg">
  <rect width="200" height="200" rx="30" fill="#FC5347"/>
  <path d="M4 72.7444C4 70.9722 4.46002 69.1669 5.72865 67.9295C32.2825 42.0291 196 84.6578 196 131C196 145.266 196 156.826 196 166.018C196 182.587 182.569 196 166 196H34C17.4315 196 4 182.599 4 166.03C4 145.368 4 114.144 4 72.7444Z" fill="#FF2D1E"/>
  <path d="M171 81C171 120.212 118 190.5 100 190.5C82 190.5 29 120.212 29 81C29 41.7878 60.7878 10 100 10C139.212 10 171 41.7878 171 81Z" fill="#FC5347"/>
  <path d="M162 79.7562C162 113.863 115.718 177.5 100 177.5C84.2817 177.5 38 113.863 38 79.7562C38 45.6492 65.7583 18 100 18C134.242 18 162 45.6492 162 79.7562Z" fill="black"/>
  <g style="mix-blend-mode:lighten">
    <circle cx="99.5" cy="68.5" r="29.5" fill="#FF9F98"/>
  </g>
</svg>