<svg width="200" height="200" viewBox="0 0 200 200" fill="none" xmlns="http://www.w3.org/2000/svg">
  <rect width="200" height="200" rx="30" fill="#FC5347"/>
  <path d="M4 72.7444C4 70.9722 4.46002 69.1669 5.72865 67.9295C32.2825 42.0291 196 84.6578 196 131C196 145.266 196 156.826 196 166.018C196 182.587 182.569 196 166 196H34C17.4315 196 4 182.599 4 166.03C4 145.368 4 114.144 4 72.7444Z" fill="#FF2D1E"/>
  <path d="M167.532 180.66C172.609 185.337 180.517 185.012 185.194 179.935C189.871 174.857 189.546 166.949 184.468 162.272L167.532 180.66ZM72.103 92.7657L167.532 180.66L184.468 162.272L89.0399 74.3771L72.103 92.7657Z" fill="#FC5347"/>
  <circle cx="81" cy="84" r="65" fill="#FC5347"/>
  <path d="M171.596 176.247C174.237 178.679 178.349 178.51 180.781 175.87C183.213 173.229 183.044 169.117 180.404 166.685L171.596 176.247ZM76.1678 88.3525L171.596 176.247L180.404 166.685L84.975 78.7904L76.1678 88.3525Z" fill="black"/>
  <g style="mix-blend-mode:plus-darker">
    <circle cx="81" cy="84" r="56" fill="black"/>
  </g>
  <g style="mix-blend-mode:lighten">
    <circle cx="81.5" cy="84.5" r="43.5" fill="#FF9F98"/>
  </g>
</svg>